<svg width="61" height="57" xmlns="http://www.w3.org/2000/svg" xmlns:xlink="http://www.w3.org/1999/xlink" xml:space="preserve" overflow="hidden"><defs><clipPath id="clip0"><rect x="621" y="368" width="61" height="57"/></clipPath></defs><g clip-path="url(#clip0)" transform="translate(-621 -368)"><path d="M39.3278 0C39.2046 0.00157099 39.0782 0.00760916 38.9527 0.0174461 33.9528 0.880471 31.2037 6.16742 30.8053 10.8297 30.2232 15.0602 32.0876 20.4977 36.7327 21.4456 37.4065 21.5739 38.1065 21.5153 38.7651 21.3366 44.3586 19.4611 46.8618 12.8364 46.0532 7.34897 45.8182 3.80504 43.1466-0.0488841 39.3277-0.000174461ZM18.13 0.2268C15.0211 0.303113 12.5993 3.45615 12.1068 6.42018 11.0683 12.2924 13.7395 19.5888 19.8572 21.4462 20.4302 21.5708 21.0229 21.5836 21.6018 21.4942 25.7367 20.805 27.4884 16.169 27.3155 12.4265 27.191 7.48966 24.6265 1.78115 19.4996 0.392992 19.031 0.268718 18.5742 0.216353 18.1301 0.227253ZM52.8743 16.9053C47.4962 17.2271 43.8089 22.5933 43.2833 27.6041 42.5715 31.2181 44.4982 36.0518 48.6218 36.3403 54.3716 36.2694 58.2941 30.1254 58.4571 24.839 58.8208 21.3426 56.7612 17.0983 52.8743 16.9053ZM5.80049 18.096C3.51239 18.0763 1.26198 19.4469 0.514312 21.7728-1.48055 27.9946 2.52536 35.8749 9.11525 37.1826 11.8656 37.6533 14.2821 35.5411 14.964 32.9999 16.4093 27.5644 13.4409 21.253 8.41741 18.7862 7.59899 18.3269 6.69582 18.1047 5.80049 18.097ZM29.911 29.2529C25.4254 29.2624 20.8693 31.5387 17.9648 34.9272 14.8277 38.8766 12.2578 43.4724 11.2523 48.4567 10.0309 52.0445 12.7992 56.1735 16.6344 56.1985 21.2484 56.3266 25.2138 53.1582 29.8019 52.9229 33.6945 52.3295 37.1799 54.3542 40.6796 55.6794 43.6593 56.9539 47.7767 56.4655 49.298 53.2587 50.4946 49.9902 48.7333 46.505 47.2743 43.6022 44.2984 38.8908 41.1102 33.939 36.2309 30.9975 34.2751 29.7852 32.1017 29.2483 29.911 29.2529Z" fill="#545454" transform="matrix(1.01072 0 0 1 622.518 368.056)"/></g></svg>